<mxfile host="65bd71144e" modified="2020-10-13T07:10:16.750Z" agent="5.0 (Windows NT 10.0; Win64; x64) AppleWebKit/537.36 (KHTML, like Gecko) Code/1.50.0 Chrome/83.0.4103.122 Electron/9.2.1 Safari/537.36" etag="20R4TOJXySliT02C0sHL" version="13.6.5">
    <diagram id="0I4HXWed1IWVnRgYtNag" name="第 1 页">
        <mxGraphModel dx="1616" dy="792" grid="1" gridSize="10" guides="1" tooltips="1" connect="1" arrows="1" fold="1" page="1" pageScale="1" pageWidth="827" pageHeight="1169" math="0" shadow="0">
            <root>
                <mxCell id="0"/>
                <mxCell id="1" parent="0"/>
                <mxCell id="pQX1BCnLHStijLfCCRD--92" value="" style="rounded=0;whiteSpace=wrap;html=1;strokeColor=#000000;fillColor=#004C99;" parent="1" vertex="1">
                    <mxGeometry x="220" y="190" width="1350" height="820" as="geometry"/>
                </mxCell>
                <mxCell id="pQX1BCnLHStijLfCCRD--38" style="edgeStyle=orthogonalEdgeStyle;rounded=0;orthogonalLoop=1;jettySize=auto;html=1;" parent="1" source="pQX1BCnLHStijLfCCRD--36" target="pQX1BCnLHStijLfCCRD--37" edge="1">
                    <mxGeometry relative="1" as="geometry"/>
                </mxCell>
                <mxCell id="pQX1BCnLHStijLfCCRD--36" value="开始" style="ellipse;whiteSpace=wrap;html=1;aspect=fixed;" parent="1" vertex="1">
                    <mxGeometry x="700" y="310" width="80" height="80" as="geometry"/>
                </mxCell>
                <mxCell id="pQX1BCnLHStijLfCCRD--41" style="edgeStyle=orthogonalEdgeStyle;rounded=0;orthogonalLoop=1;jettySize=auto;html=1;" parent="1" source="pQX1BCnLHStijLfCCRD--37" edge="1">
                    <mxGeometry relative="1" as="geometry">
                        <mxPoint x="554" y="580" as="targetPoint"/>
                    </mxGeometry>
                </mxCell>
                <mxCell id="pQX1BCnLHStijLfCCRD--52" style="edgeStyle=orthogonalEdgeStyle;rounded=0;orthogonalLoop=1;jettySize=auto;html=1;entryX=0.5;entryY=0;entryDx=0;entryDy=0;" parent="1" source="pQX1BCnLHStijLfCCRD--37" target="pQX1BCnLHStijLfCCRD--51" edge="1">
                    <mxGeometry relative="1" as="geometry"/>
                </mxCell>
                <mxCell id="pQX1BCnLHStijLfCCRD--37" value="用户是否登录&lt;br&gt;(token是否有效)" style="rhombus;whiteSpace=wrap;html=1;" parent="1" vertex="1">
                    <mxGeometry x="655" y="450" width="170" height="80" as="geometry"/>
                </mxCell>
                <mxCell id="pQX1BCnLHStijLfCCRD--49" value="是" style="edgeStyle=orthogonalEdgeStyle;rounded=0;orthogonalLoop=1;jettySize=auto;html=1;" parent="1" source="pQX1BCnLHStijLfCCRD--42" target="pQX1BCnLHStijLfCCRD--47" edge="1">
                    <mxGeometry relative="1" as="geometry"/>
                </mxCell>
                <mxCell id="pQX1BCnLHStijLfCCRD--82" value="否" style="edgeStyle=orthogonalEdgeStyle;rounded=0;orthogonalLoop=1;jettySize=auto;html=1;" parent="1" source="pQX1BCnLHStijLfCCRD--42" target="pQX1BCnLHStijLfCCRD--44" edge="1">
                    <mxGeometry relative="1" as="geometry"/>
                </mxCell>
                <mxCell id="pQX1BCnLHStijLfCCRD--42" value="访问页面是否属于白名单" style="rhombus;whiteSpace=wrap;html=1;" parent="1" vertex="1">
                    <mxGeometry x="480" y="530" width="170" height="82" as="geometry"/>
                </mxCell>
                <mxCell id="pQX1BCnLHStijLfCCRD--88" style="edgeStyle=orthogonalEdgeStyle;rounded=0;orthogonalLoop=1;jettySize=auto;html=1;" parent="1" source="pQX1BCnLHStijLfCCRD--44" target="pQX1BCnLHStijLfCCRD--87" edge="1">
                    <mxGeometry relative="1" as="geometry"/>
                </mxCell>
                <mxCell id="pQX1BCnLHStijLfCCRD--44" value="跳转登录页面" style="rounded=0;whiteSpace=wrap;html=1;" parent="1" vertex="1">
                    <mxGeometry x="505" y="670" width="120" height="60" as="geometry"/>
                </mxCell>
                <mxCell id="pQX1BCnLHStijLfCCRD--47" value="跳转到白名单页面" style="rounded=0;whiteSpace=wrap;html=1;" parent="1" vertex="1">
                    <mxGeometry x="700" y="541" width="120" height="60" as="geometry"/>
                </mxCell>
                <mxCell id="pQX1BCnLHStijLfCCRD--54" value="是" style="edgeStyle=orthogonalEdgeStyle;rounded=0;orthogonalLoop=1;jettySize=auto;html=1;" parent="1" source="pQX1BCnLHStijLfCCRD--51" edge="1">
                    <mxGeometry relative="1" as="geometry">
                        <mxPoint x="987.5" y="680" as="targetPoint"/>
                    </mxGeometry>
                </mxCell>
                <mxCell id="pQX1BCnLHStijLfCCRD--57" value="否" style="edgeStyle=orthogonalEdgeStyle;rounded=0;orthogonalLoop=1;jettySize=auto;html=1;" parent="1" source="pQX1BCnLHStijLfCCRD--51" target="pQX1BCnLHStijLfCCRD--56" edge="1">
                    <mxGeometry relative="1" as="geometry">
                        <Array as="points">
                            <mxPoint x="1120" y="580"/>
                            <mxPoint x="1120" y="580"/>
                        </Array>
                    </mxGeometry>
                </mxCell>
                <mxCell id="pQX1BCnLHStijLfCCRD--51" value="是否已经加载过菜单信息" style="rhombus;whiteSpace=wrap;html=1;" parent="1" vertex="1">
                    <mxGeometry x="900" y="540" width="175" height="80" as="geometry"/>
                </mxCell>
                <mxCell id="pQX1BCnLHStijLfCCRD--85" style="edgeStyle=orthogonalEdgeStyle;rounded=0;orthogonalLoop=1;jettySize=auto;html=1;" parent="1" source="pQX1BCnLHStijLfCCRD--55" target="pQX1BCnLHStijLfCCRD--83" edge="1">
                    <mxGeometry relative="1" as="geometry"/>
                </mxCell>
                <mxCell id="pQX1BCnLHStijLfCCRD--55" value="跳转到系统首页" style="rounded=0;whiteSpace=wrap;html=1;" parent="1" vertex="1">
                    <mxGeometry x="927.5" y="680" width="120" height="60" as="geometry"/>
                </mxCell>
                <mxCell id="pQX1BCnLHStijLfCCRD--56" value="" style="rounded=0;whiteSpace=wrap;html=1;" parent="1" vertex="1">
                    <mxGeometry x="1140" y="300" width="340" height="460" as="geometry"/>
                </mxCell>
                <mxCell id="pQX1BCnLHStijLfCCRD--58" value="登录页面点击“登录”" style="text;html=1;align=center;verticalAlign=middle;whiteSpace=wrap;rounded=0;fontColor=#FFFFFF;" parent="1" vertex="1">
                    <mxGeometry x="790" y="340" width="120" height="20" as="geometry"/>
                </mxCell>
                <mxCell id="pQX1BCnLHStijLfCCRD--71" style="edgeStyle=orthogonalEdgeStyle;rounded=0;orthogonalLoop=1;jettySize=auto;html=1;entryX=0.5;entryY=0;entryDx=0;entryDy=0;" parent="1" source="pQX1BCnLHStijLfCCRD--72" target="pQX1BCnLHStijLfCCRD--75" edge="1">
                    <mxGeometry relative="1" as="geometry"/>
                </mxCell>
                <mxCell id="pQX1BCnLHStijLfCCRD--72" value="获取菜单信息" style="rounded=0;whiteSpace=wrap;html=1;" parent="1" vertex="1">
                    <mxGeometry x="1280" y="340" width="120" height="60" as="geometry"/>
                </mxCell>
                <mxCell id="pQX1BCnLHStijLfCCRD--73" style="edgeStyle=orthogonalEdgeStyle;rounded=0;orthogonalLoop=1;jettySize=auto;html=1;" parent="1" source="pQX1BCnLHStijLfCCRD--75" target="pQX1BCnLHStijLfCCRD--77" edge="1">
                    <mxGeometry relative="1" as="geometry"/>
                </mxCell>
                <mxCell id="pQX1BCnLHStijLfCCRD--74" style="edgeStyle=orthogonalEdgeStyle;rounded=0;orthogonalLoop=1;jettySize=auto;html=1;" parent="1" source="pQX1BCnLHStijLfCCRD--75" target="pQX1BCnLHStijLfCCRD--79" edge="1">
                    <mxGeometry relative="1" as="geometry"/>
                </mxCell>
                <mxCell id="pQX1BCnLHStijLfCCRD--75" value="格式化菜单信息、拼接404路由" style="rounded=0;whiteSpace=wrap;html=1;" parent="1" vertex="1">
                    <mxGeometry x="1280" y="460" width="120" height="60" as="geometry"/>
                </mxCell>
                <mxCell id="3" style="edgeStyle=orthogonalEdgeStyle;rounded=0;orthogonalLoop=1;jettySize=auto;html=1;entryX=1;entryY=0.5;entryDx=0;entryDy=0;" edge="1" parent="1" source="pQX1BCnLHStijLfCCRD--77" target="pQX1BCnLHStijLfCCRD--55">
                    <mxGeometry relative="1" as="geometry">
                        <Array as="points">
                            <mxPoint x="1260" y="710"/>
                        </Array>
                    </mxGeometry>
                </mxCell>
                <mxCell id="pQX1BCnLHStijLfCCRD--77" value="存储菜单信息至vuex" style="rounded=0;whiteSpace=wrap;html=1;" parent="1" vertex="1">
                    <mxGeometry x="1200" y="580" width="120" height="60" as="geometry"/>
                </mxCell>
                <mxCell id="7" style="edgeStyle=orthogonalEdgeStyle;rounded=0;orthogonalLoop=1;jettySize=auto;html=1;" edge="1" parent="1" source="pQX1BCnLHStijLfCCRD--79">
                    <mxGeometry relative="1" as="geometry">
                        <mxPoint x="1260" y="710" as="targetPoint"/>
                        <Array as="points">
                            <mxPoint x="1400" y="710"/>
                        </Array>
                    </mxGeometry>
                </mxCell>
                <mxCell id="pQX1BCnLHStijLfCCRD--79" value="设置动态路由" style="rounded=0;whiteSpace=wrap;html=1;" parent="1" vertex="1">
                    <mxGeometry x="1340" y="580" width="120" height="60" as="geometry"/>
                </mxCell>
                <mxCell id="pQX1BCnLHStijLfCCRD--81" value="设置动态路由（菜单信息）" style="text;html=1;align=center;verticalAlign=middle;whiteSpace=wrap;rounded=0;rotation=0;perimeterSpacing=0;strokeColor=#000000;dashed=1;" parent="1" vertex="1">
                    <mxGeometry x="1150" y="400" width="40" height="260" as="geometry"/>
                </mxCell>
                <mxCell id="pQX1BCnLHStijLfCCRD--89" style="edgeStyle=orthogonalEdgeStyle;rounded=0;orthogonalLoop=1;jettySize=auto;html=1;" parent="1" source="pQX1BCnLHStijLfCCRD--83" target="pQX1BCnLHStijLfCCRD--86" edge="1">
                    <mxGeometry relative="1" as="geometry"/>
                </mxCell>
                <mxCell id="pQX1BCnLHStijLfCCRD--83" value="菜单组件从vuex获取菜单列表信息" style="rounded=0;whiteSpace=wrap;html=1;" parent="1" vertex="1">
                    <mxGeometry x="928" y="800" width="120" height="60" as="geometry"/>
                </mxCell>
                <mxCell id="pQX1BCnLHStijLfCCRD--86" value="结束" style="ellipse;whiteSpace=wrap;html=1;aspect=fixed;" parent="1" vertex="1">
                    <mxGeometry x="947.5" y="910" width="80" height="80" as="geometry"/>
                </mxCell>
                <mxCell id="pQX1BCnLHStijLfCCRD--87" value="结束" style="ellipse;whiteSpace=wrap;html=1;aspect=fixed;" parent="1" vertex="1">
                    <mxGeometry x="525" y="780" width="80" height="80" as="geometry"/>
                </mxCell>
                <mxCell id="pQX1BCnLHStijLfCCRD--93" value="&lt;span style=&quot;font-size: 14px&quot;&gt;刷新（F5或者右键刷新时）页面时,menuList丢失，此处重新加载菜单信息（后台返回无权限信息时，用代码刷新页面，此处menuList丢失，将重新加载）&lt;br&gt;&lt;/span&gt;" style="rounded=0;whiteSpace=wrap;html=1;shadow=0;glass=0;fontColor=#FFFFFF;fillColor=#FF9933;opacity=80;" parent="1" vertex="1">
                    <mxGeometry x="320" y="310" width="120" height="629" as="geometry"/>
                </mxCell>
                <mxCell id="pQX1BCnLHStijLfCCRD--94" value="- menuList代表菜单列表，menuList为空，代表此时无菜单信息，需重新加载，否则不加载&lt;br&gt;&lt;br&gt;- 系统首页指的是除登录页面进入系统的首个功能页面" style="text;html=1;strokeColor=none;fillColor=none;align=left;verticalAlign=middle;whiteSpace=wrap;rounded=0;fontColor=#FFFFFF;labelBackgroundColor=none;" parent="1" vertex="1">
                    <mxGeometry x="1220" y="250" width="260" height="20" as="geometry"/>
                </mxCell>
            </root>
        </mxGraphModel>
    </diagram>
</mxfile>